<svg xmlns="http://www.w3.org/2000/svg" viewBox="0 0 64 64" width="64" height="64">
  <!-- Background circle -->
  <circle cx="32" cy="32" r="30" fill="#0078D4" stroke="#005A9E" stroke-width="2"/>

  <!-- Azure cloud shape -->
  <path d="M18 38c-3.3 0-6-2.7-6-6 0-2.8 1.9-5.1 4.5-5.8C16.2 23 19.3 20 23 20c3.1 0 5.7 2 6.6 4.8C30.5 24.3 31.7 24 33 24c4.4 0 8 3.6 8 8 0 0.4 0 0.7-0.1 1.1C43.3 33.6 45 35.6 45 38c0 2.8-2.2 5-5 5H18z"
        fill="white" opacity="0.95"/>

  <!-- GOV text -->
  <text x="32" y="50" text-anchor="middle" font-family="Arial, Helvetica, sans-serif" font-size="8" font-weight="bold" fill="white" letter-spacing="1">GOV</text>

  <!-- Small shield icon -->
  <path d="M31 12 L36 14 L36 19 C36 22 33.5 24.5 31 25.5 C28.5 24.5 26 22 26 19 L26 14 Z"
        fill="#FFB900" stroke="#E6A800" stroke-width="0.5"/>
</svg>
